# xmcd
#
# Track frame offsets: 
#        150
#        13680
#        26290
#        39376
#        55659
#
# Disc length: 970 seconds
#
# Revision: 0
# Processed by: cddbd v1.5.2PL0 Copyright (c) Steve Scherf et al.
# Submitted via: ExactAudioCopy v0.99pb3
#
DISCID=2e03c805
DTITLE=The Boy And His Machine - Show Them What You're Made Of (EP)
DYEAR=2009
DGENRE=Pop Punk
TTITLE0=Hook, Line and Sinker
TTITLE1=Coming Clean
TTITLE2=Tonight, We Ride
TTITLE3=The Walls Of Regret
TTITLE4=A Getaway At Best
EXTD=
EXTT0=
EXTT1=
EXTT2=
EXTT3=
EXTT4=
PLAYORDER=
